
<svg width="27px" height="27px" viewBox="24 7 27 27" version="1.1" xmlns="http://www.w3.org/2000/svg" xmlns:xlink="http://www.w3.org/1999/xlink">
    <!-- Generator: Sketch 42 (36781) - http://www.bohemiancoding.com/sketch -->
    <desc>Created with Sketch.</desc>
    <defs>
        <circle id="path-1" cx="13.5" cy="13.5" r="13.5"></circle>
        <mask id="mask-2" maskContentUnits="userSpaceOnUse" maskUnits="objectBoundingBox" x="0" y="0" width="27" height="27" fill="white">
            <use xlink:href="#path-1"></use>
        </mask>
    </defs>
    <g id="instagram" stroke="none" stroke-width="1" fill="none" fill-rule="evenodd" transform="translate(24.000000, 7.000000)">
        <rect id="Rectangle" x="0" y="0" width="27" height="27"></rect>
        <use id="Oval" stroke="#666666" mask="url(#mask-2)" stroke-width="4" xlink:href="#path-1"></use>
        <path d="M17.2645119,7.36363636 L9.73548811,7.36363636 C8.42797507,7.36363636 7.36363636,8.42725348 7.36363636,9.73548811 L7.36363636,17.2645119 C7.36363636,18.5727465 8.42797507,19.6363636 9.73548811,19.6363636 L17.2645119,19.6363636 C18.5720249,19.6363636 19.6363636,18.5727465 19.6363636,17.2645119 L19.6363636,9.73548811 C19.6363636,8.42725348 18.5720249,7.36363636 17.2645119,7.36363636 L17.2645119,7.36363636 Z M17.9449671,8.77866565 L18.2162832,8.77722248 L18.2162832,10.8575537 L16.1424463,10.8640479 L16.1352305,8.78371675 L17.9449671,8.77866565 L17.9449671,8.77866565 Z M11.7487118,12.2401116 C12.1412544,11.6960361 12.779136,11.3395728 13.5,11.3395728 C14.220864,11.3395728 14.8587456,11.6960361 15.2512882,12.2401116 C15.507451,12.5951317 15.6604272,13.0295262 15.6604272,13.5 C15.6604272,14.6906162 14.6913378,15.6597056 13.5,15.6597056 C12.3093838,15.6597056 11.3402944,14.6906162 11.3402944,13.5 C11.3402944,13.0295262 11.4932705,12.5951317 11.7487118,12.2401116 L11.7487118,12.2401116 Z M18.4406964,17.2645119 C18.4406964,17.9132173 17.9132173,18.4406964 17.2645119,18.4406964 L9.73548811,18.4406964 C9.08678269,18.4406964 8.55930364,17.9132173 8.55930364,17.2645119 L8.55930364,12.2401116 L10.392131,12.2401116 C10.2333822,12.6297678 10.1446271,13.0547817 10.1446271,13.5 C10.1446271,15.3501454 11.6498546,16.8560945 13.5,16.8560945 C15.350867,16.8560945 16.8560945,15.3501454 16.8560945,13.5 C16.8560945,13.0547817 16.7658963,12.6297678 16.6085906,12.2401116 L18.4406964,12.2401116 L18.4406964,17.2645119 L18.4406964,17.2645119 Z" id="Shape" fill="#666666"></path>
    </g>
</svg>