
<svg width="27px" height="27px" viewBox="24 8 27 27" version="1.1" xmlns="http://www.w3.org/2000/svg" xmlns:xlink="http://www.w3.org/1999/xlink">
    <!-- Generator: Sketch 42 (36781) - http://www.bohemiancoding.com/sketch -->
    <desc>Created with Sketch.</desc>
    <defs>
        <circle id="path-1" cx="13.5" cy="13.5" r="13.5"></circle>
        <mask id="mask-2" maskContentUnits="userSpaceOnUse" maskUnits="objectBoundingBox" x="0" y="0" width="27" height="27" fill="white">
            <use xlink:href="#path-1"></use>
        </mask>
    </defs>
    <g id="twitter" stroke="none" stroke-width="1" fill="none" fill-rule="evenodd" transform="translate(24.000000, 8.000000)">
        <rect id="Rectangle" x="0" y="0" width="27" height="27"></rect>
        <use id="Oval" stroke="#666666" mask="url(#mask-2)" stroke-width="4" xlink:href="#path-1"></use>
        <path d="M18.731955,10.3371535 C19.2780579,9.99253148 19.6970898,9.44608223 19.8937473,8.79512954 C19.3824377,9.11502173 18.8174254,9.34636521 18.2145944,9.47160979 C17.7335398,8.92914921 17.0459948,8.59090909 16.2850814,8.59090909 C14.8252773,8.59090909 13.6423066,9.83936614 13.6423066,11.3789969 C13.6423066,11.5975766 13.6642415,11.8105721 13.709624,12.0139949 C11.5131105,11.8975254 9.56544446,10.7886721 8.26069731,9.10066248 C8.03302838,9.5138898 7.90293185,9.99253148 7.90293185,10.5030826 C7.90293185,11.4699388 8.36961533,12.3235165 9.07909523,12.8244948 C8.64569226,12.8101355 8.23800605,12.6832955 7.88099697,12.4758841 L7.88099697,12.5101867 C7.88099697,13.8615517 8.79167267,14.9887529 10.0026293,15.2440285 C9.78025501,15.3094428 9.54729146,15.34215 9.3052514,15.34215 C9.13506699,15.34215 8.96866446,15.3253976 8.80831292,15.2926904 C9.1441435,16.3999481 10.1206238,17.2072571 11.2778778,17.228796 C10.3724968,17.9770725 9.23263939,18.4222092 7.99445325,18.4222092 C7.78115545,18.4222092 7.57012678,18.4102432 7.36363636,18.3839179 C8.53374874,19.1744744 9.92320991,19.6363636 11.4162945,19.6363636 C16.2797868,19.6363636 18.9376891,15.387621 18.9376891,11.7028778 C18.9376891,11.5816219 18.9361763,11.4611637 18.9308817,11.342301 C19.447486,10.9490171 19.8967728,10.4576117 20.25,9.89839862 C19.7757528,10.1201693 19.2659559,10.2701437 18.731955,10.3371535 Z" id="Shape" fill="#666666"></path>
    </g>
</svg>